:version 1.10
:name ASF
:units
  mass 1
  length 1
  angle deg
:documentation
  ASF file generated by Kaydara
:root
  axis xyz
  order  tx ty tz rx ry rz
  position 0 0 0
  orientation 0 0 0
:bonedata
  begin
    id 1
    name lfemurDummy
    direction 0.61522 -0.761478 0.204097
    length 5.68318
    axis 0 -0 0 xyz
  end
  begin
    id 2
    name lfemur
    direction 0.34202 -0.939693 -5.84747e-008
    length 16.9147
    axis 0 -0 20 xyz
    dof rx ry rz
    limits( -inf , inf )
( -inf , inf )
( -inf , inf )

  end
  begin
    id 3
    name ltibia
    direction 0.34202 -0.939693 1.20839e-009
    length 18.0532
    axis 0 -0 20 xyz
    dof rz ry rx
    limits( -inf , inf )
( -inf , inf )
( -inf , inf )

  end
  begin
    id 4
    name lfoot
    direction 0.0841971 -0.23133 0.969225
    length 5.23822
    axis -90 7.62852e-016 20 xyz
    dof ry rx rz
    limits( -inf , inf )
( -inf , inf )
( -inf , inf )

  end
  begin
    id 5
    name ltoes
    direction 0 0 0
    length 0
    axis 0 0 0 xyz
    dof rz ry rx
    limits( -inf , inf )
( -inf , inf )
( -inf , inf )

  end
  begin
    id 6
    name rfemurDummy
    direction -0.625247 -0.75382 0.202044
    length 5.74091
    axis 0 -0 0 xyz
  end
  begin
    id 7
    name rfemur
    direction -0.34202 -0.939693 -1.47013e-008
    length 16.4922
    axis 0 -0 -20 xyz
    dof rx ry rz
    limits( -inf , inf )
( -inf , inf )
( -inf , inf )

  end
  begin
    id 8
    name rtibia
    direction -0.34202 -0.939693 -7.74345e-010
    length 18.2421
    axis 0 -0 -20 xyz
    dof rz ry rx
    limits( -inf , inf )
( -inf , inf )
( -inf , inf )

  end
  begin
    id 9
    name rfoot
    direction -0.124331 -0.341598 0.931586
    length 5.45787
    axis -90 -7.62852e-016 -20 xyz
    dof ry rx rz
    limits( -inf , inf )
( -inf , inf )
( -inf , inf )

  end
  begin
    id 10
    name rtoes
    direction 0 0 0
    length 0
    axis 0 0 0 xyz
    dof rz ry rx
    limits( -inf , inf )
( -inf , inf )
( -inf , inf )

  end
  begin
    id 11
    name lowerbackDummy
    direction 0 0 0
    length 0
    axis 0 -0 0 xyz
  end
  begin
    id 12
    name lowerback
    direction -0.0218484 0.994884 -0.0986304
    length 4.45607
    axis 0 -0 0 xyz
    dof rx ry rz
    limits( -inf , inf )
( -inf , inf )
( -inf , inf )

  end
  begin
    id 13
    name upperback
    direction -0.00973057 0.999717 -0.0217111
    length 4.47449
    axis 0 -0 0 xyz
    dof rx ry rz
    limits( -inf , inf )
( -inf , inf )
( -inf , inf )

  end
  begin
    id 14
    name thorax
    direction -0.000928171 0.999699 0.0245198
    length 4.50973
    axis 0 -0 0 xyz
    dof rx ry rz
    limits( -inf , inf )
( -inf , inf )
( -inf , inf )

  end
  begin
    id 15
    name rclavicle
    direction -0.9009 0.425937 -0.0834055
    length 7.28587
    axis 0 -0 0 xyz
    dof rx ry rz
    limits( -inf , inf )
( -inf , inf )
( -inf , inf )

  end
  begin
    id 16
    name rhumerus
    direction -1 -2.23604e-007 -1.42637e-007
    length 13.5704
    axis 180 30 90 xyz
    dof rx ry rz
    limits( -inf , inf )
( -inf , inf )
( -inf , inf )

  end
  begin
    id 17
    name rradius
    direction -1 5.68281e-008 -4.4952e-007
    length 8.06782
    axis 180 30 90 xyz
    dof rz ry rx
    limits( -inf , inf )
( -inf , inf )
( -inf , inf )

  end
  begin
    id 18
    name rwrist
    direction -1 1.51393e-007 1.38143e-007
    length 4.03391
    axis -90 -90 0 xyz
    dof rz rx ry
    limits( -inf , inf )
( -inf , inf )
( -inf , inf )

  end
  begin
    id 19
    name rthumb
    direction 0 0 0
    length 0
    axis 0 0 0 xyz
    dof ry rx rz
    limits( -inf , inf )
( -inf , inf )
( -inf , inf )

  end
  begin
    id 20
    name rhand
    direction -1 -3.34077e-007 -5.59631e-007
    length 1.29744
    axis -90 -90 0 xyz
    dof ry rx rz
    limits( -inf , inf )
( -inf , inf )
( -inf , inf )

  end
  begin
    id 21
    name rfingers
    direction 0 0 0
    length 0
    axis 0 0 0 xyz
    dof rz ry rx
    limits( -inf , inf )
( -inf , inf )
( -inf , inf )

  end
  begin
    id 22
    name lclavicle
    direction 0.940017 0.332249 -0.0773232
    length 8.29589
    axis 0 -0 0 xyz
    dof rx ry rz
    limits( -inf , inf )
( -inf , inf )
( -inf , inf )

  end
  begin
    id 23
    name lhumerus
    direction 1 7.41158e-008 -1.44768e-008
    length 12.0042
    axis 180 -30 -90 xyz
    dof rx ry rz
    limits( -inf , inf )
( -inf , inf )
( -inf , inf )

  end
  begin
    id 24
    name lradius
    direction 1 -1.32972e-007 3.10821e-007
    length 8.1902
    axis 180 -30 -90 xyz
    dof rz ry rx
    limits( -inf , inf )
( -inf , inf )
( -inf , inf )

  end
  begin
    id 25
    name lwrist
    direction 1 3.08957e-007 4.01394e-007
    length 4.09509
    axis -90 90 0 xyz
    dof rz rx ry
    limits( -inf , inf )
( -inf , inf )
( -inf , inf )

  end
  begin
    id 26
    name lthumb
    direction 0 0 0
    length 0
    axis 0 0 0 xyz
    dof ry rx rz
    limits( -inf , inf )
( -inf , inf )
( -inf , inf )

  end
  begin
    id 27
    name lhand
    direction 1 -1.64125e-007 -6.99514e-007
    length 1.37229
    axis -90 90 0 xyz
    dof ry rx rz
    limits( -inf , inf )
( -inf , inf )
( -inf , inf )

  end
  begin
    id 28
    name lfingers
    direction 0 0 0
    length 0
    axis 0 0 0 xyz
    dof rz ry rx
    limits( -inf , inf )
( -inf , inf )
( -inf , inf )

  end
  begin
    id 29
    name lowerneck
    direction -0.030798 0.998024 0.0547665
    length 3.93918
    axis 0 -0 0 xyz
    dof rx ry rz
    limits( -inf , inf )
( -inf , inf )
( -inf , inf )

  end
  begin
    id 30
    name upperneck
    direction 0.0531588 0.996611 -0.0627736
    length 3.95491
    axis 0 -0 0 xyz
    dof rx ry rz
    limits( -inf , inf )
( -inf , inf )
( -inf , inf )

  end
  begin
    id 31
    name head
    direction 0 0 0
    length 0
    axis 0 0 0 xyz
    dof rx ry rz
    limits( -inf , inf )
( -inf , inf )
( -inf , inf )

  end
:hierarchy
  begin
    root lfemurDummy rfemurDummy lowerbackDummy
    lfemurDummy lfemur
    lfemur ltibia
    ltibia lfoot
    lfoot ltoes
    rfemurDummy rfemur
    rfemur rtibia
    rtibia rfoot
    rfoot rtoes
    lowerbackDummy lowerback
    lowerback upperback
    upperback thorax
    thorax rclavicle lclavicle lowerneck
    rclavicle rhumerus
    rhumerus rradius
    rradius rwrist
    rwrist rthumb rhand
    rhand rfingers
    lclavicle lhumerus
    lhumerus lradius
    lradius lwrist
    lwrist lthumb lhand
    lhand lfingers
    lowerneck upperneck
    upperneck head
  end

:SAMPLES-PER-SECOND 30
:FULLY-SPECIFIED
:DEGREES
64
root  -0.7532288709 36.64977907 2.73333328 -5.166992188 -66.62400055 3.525024414
lowerback  12.67469978 3.965450048 -3.371510029
upperback  4.950429916 4.568490028 -2.726779938
thorax  -1.928329945 2.185319901 -1.589650035
lowerneck  2.786279917 4.175549984 -9.402970314
upperneck  12.84319973 4.632679939 8.370349884
head  2.911689997 2.09717989 4.156879902
lclavicle  0 -9.442270133e-015 7.951389973e-016
lhumerus  4.286580086 -13.0170002 78.04550171
lradius  2.616990942e-031 -2.370696617e-031 137.8269958
lwrist  -1.412450015e-030 -8.827812596e-032 19.9204998
lhand  -1.496451383e-031 -27.76390076 20.11240005
lfingers  90 7.125020027 -90
lthumb  89.89689403 5.08795885 91.16245106
rclavicle  0 -9.442270133e-015 7.951389973e-016
rhumerus  23.74889946 13.09969997 -75.87830353
rradius  -2.630930463e-031 2.355217386e-031 138.1649933
rwrist  7.062250077e-031 -1.765562519e-031 -8.244370461
rhand  -7.920061211e-032 -33.2840004 9.303460121
rfingers  -90 -7.125020027 -90
rthumb  -92.93752616 -24.25625642 -97.11982154
rfemur  -10.3270998 6.315090179 10.86680031
rtibia  -0 0 68.90440369
rfoot  -0 -28.49760056 -24.27210045
rtoes  5.373923086 19.29304026 -105.8922705
lfemur  -36.9620018 6.975769997 -12.85060024
ltibia  -0 0 65.17810059
lfoot  6.92633049e-032 -17.07970047 -2.336780071
ltoes  -4.250644065 -19.5611806 -102.515957
65
root  -0.9040555616 36.76200026 2.592644354 -4.450012207 -64.47699738 2.95501709
lowerback  12.41419983 4.022379875 -3.413810015
upperback  4.918680191 4.655099869 -2.886749983
thorax  -1.81032002 2.232120037 -1.727380037
lowerneck  3.203239918 3.667180061 -9.315420151
upperneck  12.67689991 3.869119883 8.932939529
head  2.845010042 1.738430023 4.30343008
lclavicle  0 -9.442270133e-015 7.951389973e-016
lhumerus  3.764770031 -14.38860035 78.86139679
lradius  2.589718997e-031 -2.400458196e-031 137.1719971
lwrist  -7.062250077e-031 8.827812596e-032 19.75270081
lhand  -1.496451383e-031 -27.76390076 20.11240005
lfingers  90 7.125020027 -90
lthumb  89.89689403 5.08795885 91.16245106
rclavicle  0 -9.442270133e-015 7.951389973e-016
rhumerus  23.77619934 12.65869999 -75.99949646
rradius  -2.63368284e-031 2.352139182e-031 138.2319946
rwrist  1.412450015e-030 -0 -7.030690193
rhand  -7.920061211e-032 -33.2840004 9.303460121
rfingers  -90 -7.125020027 -90
rthumb  -92.93752616 -24.25625642 -97.11982154
rfemur  -9.525679588 5.349009991 11.57820034
rtibia  -0 0 68.45839691
rfoot  -0 -28.07320023 -24.46179962
rtoes  5.373923086 19.29304026 -105.8922705
lfemur  -37.5082016 6.726490021 -12.85169983
ltibia  -0 0 64.88559723
lfoot  4.588105484e-032 -15.83899975 -3.543349981
ltoes  -4.250644065 -19.5611806 -102.515957
66
root  -1.039028919 36.8357771 2.450066664 -2.880004883 -62.56700134 1.463012695
lowerback  12.16950035 4.128210068 -3.201499939
upperback  4.868909836 4.847370148 -2.759370089
thorax  -1.723760009 2.33404994 -1.723510027
lowerneck  3.615449905 3.164870024 -9.523349762
upperneck  12.55259991 3.114449978 9.487010002
head  2.790649891 1.368460059 4.499849796
lclavicle  0 -9.442270133e-015 7.951389973e-016
lhumerus  3.080490112 -15.74050045 79.86419678
lradius  2.559604828e-031 -2.432543352e-031 136.4579926
lwrist  -7.062250077e-031 -8.827812596e-032 19.33429909
lhand  -1.496451383e-031 -27.76390076 20.11240005
lfingers  90 7.125020027 -90
lthumb  89.89689403 5.08795885 91.16245106
rclavicle  0 -9.442270133e-015 7.951389973e-016
rhumerus  23.69449997 12.42399979 -75.90309906
rradius  -2.629862016e-031 2.356410367e-031 138.1390076
rwrist  7.062250077e-031 -1.765562519e-031 -5.313159943
rhand  -7.920061211e-032 -33.2840004 9.303460121
rfingers  -90 -7.125020027 -90
rthumb  -92.93752616 -24.25625642 -97.11982154
rfemur  -9.21543026 5.0510602 12.94839954
rtibia  -0 0 68.44509888
rfoot  -0 -27.12330055 -24.70070076
rtoes  5.373923086 19.29304026 -105.8922705
lfemur  -38.14229965 6.563089848 -12.12749958
ltibia  -0 0 64.57969666
lfoot  4.558151524e-032 -14.45259953 -4.968599796
ltoes  -4.250644065 -19.5611806 -102.515957
67
root  -1.169273328 36.96822219 2.31515554 -1.026000977 -60.8710022 -0.2609863281
lowerback  11.84300041 4.317989826 -2.552890062
upperback  4.797170162 5.196969986 -2.78102994
thorax  -1.561980009 2.52064991 -2.128770113
lowerneck  4.106780052 2.611299992 -9.434220314
upperneck  12.39770031 2.285300016 10.06999969
head  2.730180025 0.9714180231 4.656400204
lclavicle  0 -9.442270133e-015 7.951389973e-016
lhumerus  2.625099897 -17.12389946 80.44059753
lradius  2.528964539e-031 -2.464382762e-031 135.7409973
lwrist  0 2.648343779e-031 19.76479912
lhand  -1.496451383e-031 -27.76390076 20.11240005
lfingers  90 7.125020027 -90
lthumb  89.89689403 5.08795885 91.16245106
rclavicle  0 -9.442270133e-015 7.951389973e-016
rhumerus  23.61050034 11.7439003 -76.0515976
rradius  -2.631670467e-031 2.354390492e-031 138.1829987
rwrist  7.062250077e-031 -1.765562519e-031 -4.529170036
rhand  -7.920061211e-032 -33.2840004 9.303460121
rfingers  -90 -7.125020027 -90
rthumb  -92.93752616 -24.25625642 -97.11982154
rfemur  -9.439680099 5.013979912 14.52719975
rtibia  -0 0 68.73819733
rfoot  -0 -24.93799973 -25.27319908
rtoes  5.373923086 19.29304026 -105.8922705
lfemur  -38.6977005 6.390220165 -11.06200027
ltibia  -0 0 64.05480194
lfoot  9.057828178e-032 -12.93980026 -6.479030132
ltoes  -4.250644065 -19.5611806 -102.515957
68
root  -1.28980218 37.13733343 2.173277712 0.2299804688 -59.20700073 -1.250976562
lowerback  11.39379978 4.531539917 -1.937880039
upperback  4.85048008 5.566830158 -3.057569981
thorax  -1.170480013 2.718539953 -2.760200024
lowerneck  4.657790184 2.042700052 -9.238889694
upperneck  11.98130035 1.452029943 10.71140003
head  2.587260008 0.5754039884 4.810750008
lclavicle  0 -9.442270133e-015 7.951389973e-016
lhumerus  2.775140047 -17.99139977 80.45449829
lradius  2.493480871e-031 -2.500279421e-031 134.9219971
lwrist  -1.412450015e-030 8.827812596e-032 21.86380005
lhand  -1.496451383e-031 -27.76390076 20.11240005
lfingers  90 7.125020027 -90
lthumb  89.89689403 5.08795885 91.16245106
rclavicle  0 -9.442270133e-015 7.951389973e-016
rhumerus  23.76169968 10.59459972 -76.31040192
rradius  -2.639832069e-031 2.345235742e-031 138.3820038
rwrist  3.531125038e-031 -1.765562519e-031 -4.508540154
rhand  -7.920061211e-032 -33.2840004 9.303460121
rfingers  -90 -7.125020027 -90
rthumb  -92.93752616 -24.25625642 -97.11982154
rfemur  -10.08790016 4.986289978 15.64179993
rtibia  -0 0 69.31939697
rfoot  -0 -22.11630058 -25.2663002
rtoes  5.373923086 19.29304026 -105.8922705
lfemur  -39.20040131 6.213769913 -10.30000019
ltibia  -0 0 63.30519867
lfoot  -0 -11.3671999 -8.080889702
ltoes  -4.250644065 -19.5611806 -102.515957
69
root  -1.393093368 37.31933353 2.01951331 0.7299804688 -57.51799774 -1.478027344
lowerback  11.09560013 4.486400127 -1.879359961
upperback  5.112860203 5.530729771 -3.170239925
thorax  -0.7192249894 2.703649998 -2.865760088
lowerneck  4.645659924 1.766170025 -10.01189995
upperneck  11.69149971 1.034569979 11.42759991
head  2.528039932 0.3614799976 5.162099838
lclavicle  0 -9.442270133e-015 7.951389973e-016
lhumerus  3.250770092 -17.85890007 80.38130188
lradius  2.447022903e-031 -2.54576569e-031 133.8670044
lwrist  -7.062250077e-031 1.765562519e-031 23.47480011
lhand  -1.496451383e-031 -27.76390076 20.11240005
lfingers  90 7.125020027 -90
lthumb  89.89689403 5.08795885 91.16245106
rclavicle  0 -9.442270133e-015 7.951389973e-016
rhumerus  24.63660049 10.2645998 -76.41729736
rradius  -2.637702433e-031 2.347630702e-031 138.3300018
rwrist  1.059337512e-030 -3.531125038e-031 -4.385590076
rhand  -7.920061211e-032 -33.2840004 9.303460121
rfingers  -90 -7.125020027 -90
rthumb  -92.93752616 -24.25625642 -97.11982154
rfemur  -10.90799999 4.938029766 16.18000031
rtibia  -0 0 70.08769989
rfoot  -0 -19.19249916 -24.61790085
rtoes  5.373923086 19.29304026 -105.8922705
lfemur  -39.54230118 6.040649891 -9.963859558
ltibia  -0 0 62.32339859
lfoot  -0 -9.749659538 -9.74767971
ltoes  -4.250644065 -19.5611806 -102.515957
